<svg viewBox="0 0 20 20" fill="none" xmlns="http://www.w3.org/2000/svg">
    <path
        d="M17.88 8.46188C17.9825 9.01104 18.0383 9.58521 18.0383 10.1844C18.0383 14.871 14.9016 18.2035 10.1641 18.2035C9.08678 18.2039 8.0199 17.9919 7.02448 17.5798C6.02906 17.1676 5.1246 16.5634 4.36278 15.8016C3.60097 15.0398 2.99673 14.1353 2.58459 13.1399C2.17245 12.1445 1.96049 11.0776 1.96082 10.0002C1.96049 8.92284 2.17245 7.85596 2.58459 6.86054C2.99673 5.86512 3.60097 4.96066 4.36278 4.19884C5.1246 3.43703 6.02906 2.83279 7.02448 2.42065C8.0199 2.00851 9.08678 1.79655 10.1641 1.79688C12.3791 1.79688 14.23 2.61188 15.65 3.93521L13.3375 6.24771V6.24188C12.4766 5.42188 11.3841 5.00104 10.1641 5.00104C7.45748 5.00104 5.25748 7.28771 5.25748 9.99521C5.25748 12.7019 7.45748 14.9935 10.1641 14.9935C12.62 14.9935 14.2916 13.5894 14.635 11.661H10.1641V8.46188H17.8808H17.88Z"
        fill="#134E4A" />
</svg>